<svg xmlns="http://www.w3.org/2000/svg" width="512" height="512" class="s-ion-icon" overflow="hidden" viewBox="0 0 64 64"><g fill="#132758"><path d="M38 13h-3v-3a1 1 0 0 0-1-1h-4a1 1 0 0 0-1 1v3h-3a1 1 0 0 0-1 1v4a1 1 0 0 0 1 1h3v3a1 1 0 0 0 1 1h4a1 1 0 0 0 1-1v-3h3a1 1 0 0 0 1-1v-4a1 1 0 0 0-1-1Zm-1 4h-3a1 1 0 0 0-1 1v3h-2v-3a1 1 0 0 0-1-1h-3v-2h3a1 1 0 0 0 1-1v-3h2v3a1 1 0 0 0 1 1h3ZM59.73 18.36a4.02 4.02 0 0 0-3.15-4.44 4.071 4.071 0 0 0-4.7 2.97l-4.4 12.66a1.624 1.624 0 0 0-.19.09l-8.84 5.18A9.017 9.017 0 0 0 34 42.58V52a1 1 0 0 0-1 1v8a1 1 0 0 0 1 1h14a1 1 0 0 0 1-1v-8a1 1 0 0 0-1-1v-2.2a3.039 3.039 0 0 1 1-2.24l6.76-6.01a4.931 4.931 0 0 0 1.52-2.45l4.34-16.23c.093-.339.14-.689.14-1.04a4.02 4.02 0 0 0-2.03-3.47Zm-5.94-.88a2.113 2.113 0 0 1 2.38-1.6 2 2 0 0 1 1.59 1.95v.02a4.1 4.1 0 0 0-3.89 3.06l-2.79 8.61a4.199 4.199 0 0 0-1.34-.38ZM47 60H35v-6h12Zm12.69-37.65-4.35 16.24a2.981 2.981 0 0 1-.9 1.46l-6.77 6.01A5.056 5.056 0 0 0 46 49.8V52H36v-9.42a7.052 7.052 0 0 1 3.46-6.04l8.83-5.17a2 2 0 0 1 2.735.721l.005.009a2.06 2.06 0 0 1 .2 1.52 2 2 0 0 1-.94 1.21l-5.73 3.31a1 1 0 0 0 1 1.73l5.73-3.31a3.948 3.948 0 0 0 1.87-2.43 4.007 4.007 0 0 0-.4-3.03l-.06-.09 3.09-9.53a2.113 2.113 0 0 1 2.38-1.6 2 2 0 0 1 1.59 1.95 1.72 1.72 0 0 1-.07.52ZM30 52v-9.42a9.017 9.017 0 0 0-4.45-7.76l-8.84-5.19c-.06-.03-.13-.05-.19-.08l-4.37-12.59a4.107 4.107 0 0 0-4.73-3.04 4.02 4.02 0 0 0-3.15 4.44 4.019 4.019 0 0 0-2.03 3.47c.002.35.046.7.13 1.04l4.35 16.22c.249.954.778 1.81 1.52 2.46l6.75 6.01A3.012 3.012 0 0 1 16 49.8V52a1 1 0 0 0-1 1v8a1 1 0 0 0 1 1h14a1 1 0 0 0 1-1v-8a1 1 0 0 0-1-1ZM6.24 17.83a2 2 0 0 1 1.58-1.95 2.161 2.161 0 0 1 2.42 1.67l4.02 11.59c-.465.051-.918.18-1.34.38l-2.77-8.56a4.149 4.149 0 0 0-3.91-3.11Zm10.08 28.23-6.76-6.01a2.965 2.965 0 0 1-.9-1.47L4.3 22.35a2.121 2.121 0 0 1-.06-.52 2 2 0 0 1 1.58-1.95 2.144 2.144 0 0 1 2.41 1.65l3.07 9.48-.06.09a4.007 4.007 0 0 0-.4 3.03 3.948 3.948 0 0 0 1.87 2.43l5.73 3.31a1 1 0 0 0 1-1.73l-5.73-3.31a2 2 0 0 1-.94-1.21 2.06 2.06 0 0 1 .2-1.52 2 2 0 0 1 2.73-.74l8.84 5.18A7.052 7.052 0 0 1 28 42.58V52H18v-2.2a5.03 5.03 0 0 0-1.68-3.74ZM29 60H17v-6h12Z"/><path d="M46.147 5.132c-3.9-3.906-10.227-3.912-14.134-.012a1.536 1.536 0 0 0-.013.013c-3.898-3.906-10.224-3.913-14.13-.015l-.016.015c-3.897 3.905-3.897 10.229 0 14.134l13.44 13.44a1 1 0 0 0 1.414 0l13.44-13.44c3.897-3.906 3.896-10.23-.001-14.135ZM32 30.586 19.267 17.853A8 8 0 0 1 24.93 4.2a7.916 7.916 0 0 1 5.653 2.347l.71.71a1 1 0 0 0 1.414 0l.712-.712a7.993 7.993 0 0 1 11.304-.01l.01.01a8 8 0 0 1 0 11.306Z"/></g></svg>