<svg xmlns="http://www.w3.org/2000/svg" width="512" height="512" class="s-ion-icon" overflow="hidden"><path fill="#132758" d="M497 85.214h-61c-8.284 0-15 6.716-15 15v15h-28.787l-5.104-5.104c-16.054-16.054-37.399-24.896-60.104-24.896h-62.721c-17.362 0-33.685 6.761-45.961 19.038l-10.962 10.962H91v-15c0-8.284-6.716-15-15-15H15c-8.284 0-15 6.716-15 15v260c0 8.284 6.716 15 15 15h61c8.284 0 15-6.716 15-15v-6.184l35.634 17.068 9.483 26.055c4.111 11.296 12.375 20.314 23.269 25.395 6.05 2.82 12.508 4.239 18.99 4.239 5.19 0 10.397-.91 15.419-2.737 10.82-3.939 19.211-11.625 24.256-21.059a45.032 45.032 0 0 0 16.778 3.253 44.81 44.81 0 0 0 15.346-2.716c10.812-3.936 19.199-11.614 24.245-21.038a44.719 44.719 0 0 0 16.719 3.255 45.03 45.03 0 0 0 15.418-2.738c10.812-3.936 19.198-11.613 24.244-21.038a44.718 44.718 0 0 0 16.719 3.254c5.189 0 10.396-.91 15.417-2.737 11.296-4.111 20.314-12.375 25.394-23.269a45.768 45.768 0 0 0 1.639-4.003H421v25c0 8.284 6.716 15 15 15h61c8.284 0 15-6.716 15-15v-260c0-8.284-6.716-15-15-15Zm-436 260H30v-230h31Zm291.679-10.92a14.905 14.905 0 0 1-11.47-.501 14.897 14.897 0 0 1-7.755-8.465l-17.97-49.37c-2.835-7.784-11.442-11.8-19.227-8.965-7.784 2.834-11.798 11.441-8.965 19.227l17.97 49.369c2.829 7.772-1.193 16.397-8.965 19.227a14.906 14.906 0 0 1-11.47-.501 14.895 14.895 0 0 1-7.756-8.465l-17.97-49.37c-2.834-7.784-11.443-11.797-19.226-8.965-7.785 2.834-11.798 11.441-8.965 19.227l17.969 49.369c2.829 7.772-1.193 16.397-8.965 19.226-7.771 2.83-16.396-1.191-19.226-8.965l-17.97-49.37c-2.833-7.784-11.442-11.798-19.226-8.965-7.785 2.834-11.798 11.441-8.965 19.227l17.97 49.37c2.829 7.771-1.193 16.396-8.965 19.225a14.906 14.906 0 0 1-11.47-.5 14.898 14.898 0 0 1-7.756-8.466l-11.578-31.809a14.994 14.994 0 0 0-7.616-8.397L91 320.767V145.214h86.361l-8.033 8.033c-8.5 8.499-13.18 19.8-13.18 31.819 0 12.021 4.681 23.321 13.181 31.821 17.545 17.543 46.094 17.544 63.639-.001l37.279-37.279a14.904 14.904 0 0 1 10.606-4.394h29.89l50.865 139.753c.011.035.024.069.037.104l.009.03c.534 1.476.794 3.144.792 5.101 0 .374.027.745.054 1.116a14.976 14.976 0 0 1-1.356 5.221 14.908 14.908 0 0 1-8.465 7.756Zm37.3-29.08a11.104 11.104 0 0 0-.145-.406L335.34 155.084a15 15 0 0 0-14.096-9.87h-40.393c-12.02 0-23.32 4.681-31.819 13.181l-37.279 37.278c-5.849 5.85-15.365 5.85-21.214.001a14.904 14.904 0 0 1-4.393-10.607c0-4.006 1.56-7.773 4.393-10.606l48.995-48.995c6.611-6.61 15.4-10.251 24.749-10.251h62.721c14.691 0 28.503 5.721 38.891 16.108l9.498 9.498a15 15 0 0 0 10.606 4.394h35v160h-31.02Zm92.021 40h-31v-230h31Z"/></svg>