<svg xmlns="http://www.w3.org/2000/svg" class="s-ion-icon" overflow="hidden" viewBox="0 0 512 512"><path fill="#132758" d="M125.696 125.994c-5.52 0-10 4.48-10 10s4.48 10 10 10 10-4.48 10-10-4.48-10-10-10ZM215.691 312.984h-29.998v-29.998c0-5.522-4.478-10-10-10s-9.999 4.478-9.999 10v29.998h-29.998c-5.522 0-10 4.478-10 9.999 0 5.521 4.478 10 10 10h29.998v29.998c0 5.522 4.478 10 9.999 10 5.521 0 10-4.478 10-10v-29.998h29.998c5.522 0 10-4.478 10-10s-4.477-9.999-10-9.999Z"/><path fill="#132758" d="M485.578 321.984c-22.105-38.286-70.981-51.389-109.274-29.279l-40.618 23.45v-86.836c0-10.735-3.55-21.388-9.999-29.998L275.69 132.66v-28.386c11.638-4.128 19.999-15.242 19.999-28.279V29.998C295.687 13.457 282.23 0 265.689 0H85.698C69.157 0 55.699 13.457 55.699 29.998v45.998c0 13.035 8.361 24.151 19.999 28.279v28.386l-50.001 66.665c-6.446 8.606-9.996 19.258-9.996 29.993v193.66c0 27.569 22.429 49.997 49.997 49.997H226.4c22.421 37.583 70.767 50.161 108.664 28.279L456.3 431.258c37.955-21.918 51.494-70.779 29.278-109.274ZM75.698 29.998c0-5.514 4.486-10 9.999-10h179.991c5.514 0 10 4.486 10 10v45.998c0 5.514-4.486 9.999-10 9.999H85.698c-5.514 0-9.999-4.486-9.999-9.999V29.998ZM41.701 211.319l51.996-69.326a9.999 9.999 0 0 0 2-6v-29.998h159.992v19.999h-89.995c-5.522 0-10 4.478-10 10s4.478 10 10 10h94.995l48.993 65.322c3.202 4.275 5.191 9.39 5.792 14.674H35.913c.6-5.285 2.589-10.4 5.788-14.671Zm23.998 241.658c-16.541 0-29.998-13.457-29.998-29.998V412.88h181.675c-3.171 12.965-3.15 26.813.481 40.098H65.699Zm159.52-59.997H35.7V245.987h279.986V327.7l-60.619 35.002c-12.639 7.301-22.855 17.694-29.848 30.278Zm99.847 90.955c-28.697 16.571-65.367 6.771-81.949-21.946-16.661-28.994-6.564-65.498 21.952-81.969l54.277-31.338 59.997 103.915-54.277 31.338ZM446.3 413.939l-49.637 28.659-59.998-103.917 49.638-28.656c28.716-16.578 65.373-6.761 81.955 21.957 16.655 28.862 6.527 65.508-21.958 81.957Z"/></svg>