<svg xmlns="http://www.w3.org/2000/svg" class="s-ion-icon" overflow="hidden" viewBox="0 0 512 512"><path fill="#132758" d="M236 126c-5.52 0-10 4.48-10 10s4.48 10 10 10 10-4.48 10-10-4.48-10-10-10Z"/><path fill="#132758" d="M406 246c16.542 0 30-13.458 30-30v-20c0-16.542-13.458-30-30-30h-10v-10c0-37.047-28.934-67.446-65.388-69.831-8.599-49.136-10.985-62.9-11.122-63.45A29.971 29.971 0 0 0 290.38 0H181.62a29.971 29.971 0 0 0-29.11 22.719c-.138.55-2.523 14.314-11.122 63.45C104.934 88.554 76 118.953 76 156v200c0 37.047 28.934 67.446 65.388 69.831l10.972 62.741c.042.238.092.474.15.708A29.971 29.971 0 0 0 181.62 512h108.76a29.971 29.971 0 0 0 29.11-22.719c.059-.234.108-.471.15-.708l10.972-62.741C367.066 423.446 396 393.047 396 356v-10h10c16.542 0 30-13.458 30-30v-20c0-16.542-13.458-30-30-30h-10v-20h10Zm-10-60h10c5.514 0 10 4.486 10 10v20c0 5.514-4.486 10-10 10h-10v-40ZM171.987 27.29A9.999 9.999 0 0 1 181.62 20h108.76a9.999 9.999 0 0 1 9.633 7.29L310.279 86H161.721l10.266-58.71Zm128.026 457.42a9.999 9.999 0 0 1-9.633 7.29H181.62a9.999 9.999 0 0 1-9.633-7.29L161.721 426h148.558l-10.266 58.71ZM376 356c0 27.57-22.43 50-50 50H146c-27.57 0-50-22.43-50-50V156c0-27.57 22.43-50 50-50h180c27.57 0 50 22.43 50 50v200Zm30-70c5.514 0 10 4.486 10 10v20c0 5.514-4.486 10-10 10h-10v-40h10Z"/><path fill="#132758" d="M326 126h-50c-5.522 0-10 4.477-10 10s4.478 10 10 10h50c5.514 0 10 4.486 10 10v90h-50a9.999 9.999 0 0 0-9.487 6.838L266 284.377l-10.513-31.54A10 10 0 0 0 246 246h-12.192l-18.106-72.425a10 10 0 0 0-19.403 0L178.192 246H136v-90c0-5.514 4.486-10 10-10h30c5.522 0 10-4.477 10-10s-4.478-10-10-10h-30c-16.542 0-30 13.458-30 30v200c0 16.542 13.458 30 30 30h180c16.542 0 30-13.458 30-30V156c0-16.542-13.458-30-30-30Zm10 230c0 5.514-4.486 10-10 10H146c-5.514 0-10-4.486-10-10v-90h50a9.998 9.998 0 0 0 9.701-7.575L206 217.231l10.299 41.194A9.998 9.998 0 0 0 226 266h12.792l17.721 53.162a10.001 10.001 0 0 0 18.974 0L293.208 266H336v90Z"/></svg>