<svg xmlns="http://www.w3.org/2000/svg" class="s-ion-icon" overflow="hidden" viewBox="0 0 490 490"><g fill="#132758"><path d="M234.929.088V38.64c-34.76 5.719-57.052 29.765-57.052 61.452 0 33.203 23.804 50.765 62.347 66.024 27.952 11.449 42.691 24.428 42.691 45.43 0 21.753-18.142 37.405-44.961 37.405-21.169 0-40.812-7.259-54.416-16.416l-9.066 25.574c13.226 9.54 35.895 16.417 57.809 16.787v38.552h23.804V273.76c38.921-6.495 59.699-34.743 59.699-64.89 0-33.967-19.643-53.822-58.564-69.845-32.869-13.742-46.853-23.664-46.853-43.519 0-15.271 10.957-32.821 40.057-32.821 24.182 0 39.665 8.394 47.608 12.978l9.443-25.191c-10.957-6.496-26.452-12.597-49.122-13.361V.088h-23.424ZM485.509 225.463l-7.713 1.883c-26.982 6.562-29.074 24.007-31.481 44.217-1.256 10.404-2.661 22.198-7.145 36.19-4.813 14.948-15.068 25.636-25.801 33.11 6.218-7.833 12.512-17.011 17.773-27.266 6.129-11.929 6.592-21.211 1.375-27.594-8.715-10.718-28.476-5.875-32.333-4.798l-2.586.733-1.57 2.138c-.179.269-19.926 26.787-86.64 73.56-73.68 51.646-35.965 127.359-35.562 128.121l2.123 4.156h67.207l.389-7.235c1.659-30.734 26.533-49.09 58.029-72.319 15.711-11.585 33.514-24.724 50.211-40.973 52.139-50.779 36.025-132.68 35.323-136.148l-1.599-7.775Zm-44.396 132.949c-15.95 15.531-32.572 27.789-48.627 39.628-31.182 23.005-58.388 43.081-63.485 76.565h-43.44c-6.114-14.948-21.72-66.355 32.617-104.443 58.747-41.182 82.156-67.118 88.434-74.771 6.458-1.375 12.945-1.076 14.051.284.015.015 1.166 2.556-3.124 10.927-15.576 30.3-41.855 51.063-42.124 51.258l-25.666 20.075 31.914-6.532c2.317-.478 57.042-12.198 72.08-58.971 4.933-15.397 6.502-28.521 7.758-39.06 1.898-15.905 2.84-23.783 11.884-28.357 2.453 21.391 4.665 77.417-32.272 113.397ZM88.439 410.357c31.496 23.229 56.37 41.586 58.029 72.319l.389 7.235h67.192l2.123-4.156c.389-.762 38.133-76.475-35.562-128.121-66.714-46.773-86.446-73.291-86.625-73.545l-1.585-2.182-2.571-.703c-3.857-1.076-23.618-5.905-32.348 4.798-5.202 6.398-4.739 15.681 1.39 27.594 5.262 10.255 11.555 19.433 17.773 27.266-10.733-7.474-21.002-18.162-25.801-33.11-4.499-14.007-5.904-25.801-7.145-36.205-2.422-20.195-4.499-37.64-31.496-44.202l-7.713-1.883-1.599 7.773c-.703 3.468-16.817 85.369 35.338 136.148 16.697 16.25 34.501 29.39 50.211 40.974ZM16.628 245.015c9.029 4.589 9.971 12.452 11.869 28.357 1.256 10.539 2.825 23.648 7.773 39.06 15.008 46.773 69.763 58.492 72.08 58.971l32.064 6.562-25.816-20.105c-.269-.209-26.488-20.838-42.124-51.258-4.305-8.386-3.139-10.912-3.124-10.927 1.121-1.36 7.579-1.659 14.051-.284 6.278 7.654 29.672 33.589 88.419 74.771 54.113 37.924 38.656 89.45 32.587 104.443h-43.395c-5.112-33.499-32.303-53.56-63.485-76.565-16.069-11.839-32.677-24.096-48.627-39.628-36.846-35.875-34.694-91.976-32.272-113.397Z"/></g></svg>