<svg xmlns="http://www.w3.org/2000/svg" class="s-ion-icon" overflow="hidden" viewBox="0 0 512 512"><path fill="#132758" d="M376 33c-42.335 0-79.128 20.15-106.399 58.273-5.39 7.533-9.893 15.056-13.601 22.047-3.708-6.991-8.211-14.514-13.601-22.047C215.128 53.15 178.335 33 136 33 57.6 33 0 98.255 0 178.263c0 89.175 72.455 150.202 182.129 242.578 20.429 17.207 41.553 35 64.047 54.495a14.968 14.968 0 0 0 9.824 3.665c3.503 0 7.005-1.222 9.824-3.665 22.494-19.495 43.618-37.288 64.047-54.495C439.545 328.464 512 267.438 512 178.263 512 98.276 454.427 33 376 33Zm-65.455 364.896c-17.517 14.754-35.543 29.937-54.545 46.287-19.002-16.35-37.028-31.533-54.545-46.287-58.95-49.654-106.468-89.685-136.4-128.896H136c5.682 0 10.876-3.21 13.416-8.292L166 227.541l46.584 93.167a14.998 14.998 0 0 0 26.832 0L256 287.54l16.584 33.167a14.998 14.998 0 0 0 26.832 0L346 227.541l16.584 33.167c2.54 5.082 7.734 8.192 13.416 8.192h70.945c-29.932 39.212-77.45 79.342-136.4 128.996ZM385.27 239l-25.854-51.708a14.998 14.998 0 0 0-26.832 0L286 280.458l-16.584-33.167a14.999 14.999 0 0 0-26.832.001L226 280.458l-46.584-93.167a14.999 14.999 0 0 0-26.832.001L126.729 239H45.68C35.481 219.464 30 199.576 30 178.263 30 112.552 75.57 63 136 63c32.447 0 59.869 15.154 81.507 45.041 17.033 23.529 23.961 47.693 24.045 47.99a15 15 0 0 0 28.904-.028C270.714 155.073 297.123 63 376 63c60.43 0 106 49.552 106 115.263 0 21.314-5.481 41.201-15.68 60.737h-81.05Z"/></svg>