<svg xmlns="http://www.w3.org/2000/svg" width="512" height="512" class="s-ion-icon" overflow="hidden" viewBox="0 0 128 128"><g fill="#132758"><path d="M98.5 16.514H83.469V1.747A1.75 1.75 0 0 0 81.719 0H46.281a1.75 1.75 0 0 0-1.75 1.748v14.766H29.5a9.761 9.761 0 0 0-9.75 9.75v91.982c.004 5.384 4.366 9.748 9.75 9.754h69c5.382-.006 9.744-4.368 9.75-9.75V26.264c-.006-5.382-4.368-9.744-9.75-9.75Zm-52.219 13.5H94.75V114.5h-61.5V30.014ZM48.031 3.5h31.938v23.014H48.031V3.5Zm56.719 114.746a6.257 6.257 0 0 1-6.25 6.25h-69a6.257 6.257 0 0 1-6.25-6.25V26.264a6.257 6.257 0 0 1 6.25-6.25h15.031v6.5H31.5a1.75 1.75 0 0 0-1.75 1.748v87.984A1.75 1.75 0 0 0 31.494 118H96.5a1.749 1.749 0 0 0 1.75-1.748V28.264a1.75 1.75 0 0 0-1.748-1.75H83.469v-6.5H98.5a6.257 6.257 0 0 1 6.25 6.25Z"/><path d="M58.469 16.756h3.781v3.781a1.75 1.75 0 1 0 3.5 0v-3.781h3.781a1.75 1.75 0 1 0 0-3.5H65.75V9.475a1.75 1.75 0 1 0-3.5 0v3.781h-3.781a1.75 1.75 0 1 0 0 3.5ZM45.243 59.217c.735.62 1.833.53 2.459-.2l9.751-11.36a1.75 1.75 0 1 0-2.653-2.275l-8.622 10.041-3.547-3a1.75 1.75 0 1 0-2.262 2.672ZM64 50.021h22.5a1.75 1.75 0 1 0 0-3.5H64a1.75 1.75 0 1 0 0 3.5ZM64 57.882h15.25a1.75 1.75 0 1 0 0-3.5H64a1.75 1.75 0 1 0 0 3.5ZM45.243 79.271a1.75 1.75 0 0 0 2.459-.2l9.751-11.359a1.75 1.75 0 0 0-2.656-2.28l-8.619 10.045-3.547-3a1.75 1.75 0 1 0-2.262 2.672ZM64 70.074h22.5a1.75 1.75 0 1 0 0-3.5H64a1.75 1.75 0 1 0 0 3.5ZM64 77.935h15.25a1.75 1.75 0 1 0 0-3.5H64a1.75 1.75 0 1 0 0 3.5ZM45.243 99.324c.735.62 1.833.53 2.459-.2l9.751-11.359a1.75 1.75 0 0 0-2.656-2.28L46.178 95.53l-3.547-3a1.75 1.75 0 1 0-2.262 2.67ZM64 90.128h22.5a1.75 1.75 0 1 0 0-3.5H64a1.75 1.75 0 1 0 0 3.5ZM64 97.989h15.25a1.75 1.75 0 1 0 0-3.5H64a1.75 1.75 0 1 0 0 3.5Z"/></g></svg>