<svg xmlns="http://www.w3.org/2000/svg" class="s-ion-icon" overflow="hidden" viewBox="0 0 388.8 388.8"><path fill="#132758" d="M262.48 182.856h-32.64v-32.64c.044-6.583-5.257-11.956-11.84-12h-47.12c-6.583 0-11.92 5.337-11.92 11.92v32.64H126.4c-6.583-.044-11.956 5.256-12 11.839v47.121c0 6.583 5.337 11.92 11.92 11.92h32.64v32.56c-.044 6.583 5.257 11.956 11.84 12h47.04c6.583 0 11.92-5.337 11.92-11.92v-32.64h32.64c6.583.044 11.956-5.257 12-11.84v-47.04c0-6.583-5.336-11.92-11.92-11.92Zm-4.08 54.8h-36.56a8 8 0 0 0-8 8v36.56h-38.88v-36.56a8 8 0 0 0-8-8H130.4v-38.8h36.56a8 8 0 0 0 8-8v-36.64h38.8v36.56a8 8 0 0 0 8 8h36.64v38.88Z"/><path fill="#132758" d="M333.6 78.376h-65.92v-28.16c.415-12.85-9.666-23.604-22.516-24.019a23.387 23.387 0 0 0-1.964.019h-97.6c-12.84-.669-23.791 9.197-24.461 22.036a22.97 22.97 0 0 0-.019 1.964v28H55.2c-25.44 0-55.2 14.48-55.2 55.2v174c0 40.72 29.76 55.2 55.2 55.2h278.4c25.44 0 55.2-14.48 55.2-55.2v-173.84c0-40.72-29.68-55.2-55.2-55.2Zm-196.48-28.16c0-2.32 0-8.56 8.56-8.56h97.52c8.56 0 8.56 6.16 8.56 8.56v28H137.12v-28Zm235.68 257.2c0 35.36-27.36 39.2-39.2 39.2H55.2c-11.76 0-39.2-3.84-39.2-39.2v-173.84c0-35.36 27.36-39.2 39.2-39.2h278.4c11.76 0 39.2 3.84 39.2 39.2v173.84Z"/></svg>