<?xml version="1.0" encoding="UTF-8"?>
<!DOCTYPE svg PUBLIC "-//W3C//DTD SVG 1.1//EN" "http://www.w3.org/Graphics/SVG/1.1/DTD/svg11.dtd">
<svg xmlns="http://www.w3.org/2000/svg" version="1.1" width="512px" height="512px" style="shape-rendering:geometricPrecision; text-rendering:geometricPrecision; image-rendering:optimizeQuality; fill-rule:evenodd; clip-rule:evenodd" xmlns:xlink="http://www.w3.org/1999/xlink">
<g><path style="opacity:0.999" fill="#f1f2f2" d="M 511.5,31.5 C 511.5,173.5 511.5,315.5 511.5,457.5C 506.13,476.367 493.797,487.867 474.5,492C 332.5,492.5 190.5,492.667 48.5,492.5C 69.3719,488.629 82.2052,476.296 87,455.5C 87.5,332.5 87.6667,209.5 87.5,86.5C 87.3334,68.4969 87.5001,50.4969 88,32.5C 90.1926,26.3074 94.3593,22.1407 100.5,20C 233.5,19.3333 366.5,19.3333 499.5,20C 504.689,22.6907 508.689,26.5241 511.5,31.5 Z"/></g>
<g><path style="opacity:1" fill="#4c555b" d="M 160.5,88.5 C 160.44,87.9569 160.107,87.6236 159.5,87.5C 158.5,104.821 158.167,122.154 158.5,139.5C 153.417,144.755 148.251,144.755 143,139.5C 142.333,111.167 142.333,82.8333 143,54.5C 145.133,52.1465 147.8,51.1465 151,51.5C 154.441,51.3135 157.441,52.3135 160,54.5C 169.255,71.3417 178.255,88.3417 187,105.5C 187.333,88.5 187.667,71.5 188,54.5C 189.863,52.051 192.363,51.051 195.5,51.5C 198.253,51.3533 200.753,52.0199 203,53.5C 203.667,82.5 203.667,111.5 203,140.5C 198,144.5 193,144.5 188,140.5C 178.553,123.271 169.387,105.938 160.5,88.5 Z"/></g>
<g><path style="opacity:1" fill="#4c555b" d="M 222.5,51.5 C 239.503,51.3334 256.503,51.5001 273.5,52C 277.393,56.2578 277.393,60.5911 273.5,65C 260.838,65.4999 248.171,65.6666 235.5,65.5C 235.5,73.8333 235.5,82.1667 235.5,90.5C 242.508,90.3337 249.508,90.5004 256.5,91C 260.489,95.0454 260.489,99.0454 256.5,103C 249.508,103.5 242.508,103.666 235.5,103.5C 235.5,111.833 235.5,120.167 235.5,128.5C 247.838,128.333 260.171,128.5 272.5,129C 277.833,133.667 277.833,138.333 272.5,143C 256.167,143.667 239.833,143.667 223.5,143C 222.069,142.535 220.903,141.701 220,140.5C 219.333,111.5 219.333,82.5 220,53.5C 220.995,52.9341 221.828,52.2674 222.5,51.5 Z"/></g>
<g><path style="opacity:1" fill="#4c555b" d="M 289.5,51.5 C 292.518,51.3354 295.518,51.502 298.5,52C 299,52.5 299.5,53 300,53.5C 306.672,76.1822 313.339,98.8489 320,121.5C 323.661,106.857 327.327,92.1902 331,77.5C 336,73.5 341,73.5 346,77.5C 349.991,91.7957 353.824,106.129 357.5,120.5C 364.178,98.1204 371.012,75.787 378,53.5C 383.21,50.6483 388.043,51.315 392.5,55.5C 392.931,56.2935 393.265,57.1268 393.5,58C 384.6,84.6998 376.1,111.533 368,138.5C 365.505,142.454 361.839,144.121 357,143.5C 353.479,143.917 350.479,142.917 348,140.5C 344.588,128.933 341.588,117.266 339,105.5C 335.687,117.083 332.52,128.75 329.5,140.5C 326.805,142.888 323.638,143.888 320,143.5C 315.869,144.1 312.536,142.766 310,139.5C 301.5,112.167 293,84.8333 284.5,57.5C 285.465,54.8724 287.132,52.8724 289.5,51.5 Z"/></g>
<g><path style="opacity:1" fill="#4d565b" d="M 423.5,50.5 C 432.091,49.8751 440.425,51.0418 448.5,54C 453.738,57.2738 454.904,61.7738 452,67.5C 450.687,68.5728 449.187,69.2395 447.5,69.5C 439.544,65.8014 431.211,64.6347 422.5,66C 414.907,71.1151 414.573,76.7818 421.5,83C 430.94,86.8861 439.94,91.5528 448.5,97C 458.198,108.881 459.031,121.381 451,134.5C 439.43,144.773 426.263,147.273 411.5,142C 404.3,139.964 399.633,135.464 397.5,128.5C 398.172,122.317 401.506,119.817 407.5,121C 415.695,129.827 425.362,131.827 436.5,127C 441.182,119.82 440.182,113.487 433.5,108C 421.951,103.982 411.784,97.8149 403,89.5C 395.216,68.7898 402.05,55.7898 423.5,50.5 Z"/></g>
<g><path style="opacity:0.999" fill="#e7e8e9" d="M 50.5,86.5 C 50.6667,208.5 50.5,330.5 50,452.5C 47.5305,468.457 39.3638,480.457 25.5,488.5C 11.736,482.406 3.06937,472.072 -0.5,457.5C -0.5,338.167 -0.5,218.833 -0.5,99.5C 1.98203,93.5198 6.31536,89.3531 12.5,87C 25.1623,86.5001 37.8289,86.3334 50.5,86.5 Z"/></g>
<g><path style="opacity:1" fill="#d0d1d2" d="M 50.5,86.5 C 62.8333,86.5 75.1667,86.5 87.5,86.5C 87.6667,209.5 87.5,332.5 87,455.5C 82.2052,476.296 69.3719,488.629 48.5,492.5C 40.352,493.193 32.6854,491.86 25.5,488.5C 39.3638,480.457 47.5305,468.457 50,452.5C 50.5,330.5 50.6667,208.5 50.5,86.5 Z"/></g>
<g><path style="opacity:1" fill="#686f74" d="M 160.5,88.5 C 159.833,105.5 159.167,122.5 158.5,139.5C 158.167,122.154 158.5,104.821 159.5,87.5C 160.107,87.6236 160.44,87.9569 160.5,88.5 Z"/></g>
<g><path style="opacity:1" fill="#4c555b" d="M 310.5,177.5 C 359.834,177.333 409.168,177.5 458.5,178C 466.073,182.187 466.406,186.854 459.5,192C 409.833,192.667 360.167,192.667 310.5,192C 307.317,190.982 305.984,188.815 306.5,185.5C 306.667,184.167 306.833,182.833 307,181.5C 308.376,180.295 309.542,178.962 310.5,177.5 Z"/></g>
<g><path style="opacity:1" fill="#e5b965" d="M 187.5,185.5 C 184.8,187.046 182.967,189.379 182,192.5C 181.333,229.833 181.333,267.167 182,304.5C 183.277,307.938 185.443,310.605 188.5,312.5C 178.161,312.666 167.828,312.5 157.5,312C 155.376,310.878 153.543,309.378 152,307.5C 150.845,287.92 150.345,268.254 150.5,248.5C 150.667,229.5 150.833,210.5 151,191.5C 152.167,189 154,187.167 156.5,186C 166.828,185.5 177.161,185.334 187.5,185.5 Z"/></g>
<g><path style="opacity:1" fill="#fece71" d="M 187.5,185.5 C 215.169,185.333 242.835,185.5 270.5,186C 273.583,186.786 275.749,188.619 277,191.5C 277.667,229.167 277.667,266.833 277,304.5C 276.31,307.196 274.81,309.363 272.5,311C 244.564,312.475 216.564,312.975 188.5,312.5C 185.443,310.605 183.277,307.938 182,304.5C 181.333,267.167 181.333,229.833 182,192.5C 182.967,189.379 184.8,187.046 187.5,185.5 Z"/></g>
<g><path style="opacity:1" fill="#4c555b" d="M 310.5,241.5 C 360.168,241.333 409.834,241.5 459.5,242C 466.406,247.146 466.073,251.813 458.5,256C 409.167,256.667 359.833,256.667 310.5,256C 305.174,250.999 305.174,246.165 310.5,241.5 Z"/></g>
<g><path style="opacity:1" fill="#4d565c" d="M 311.5,304.5 C 360.501,304.333 409.501,304.5 458.5,305C 465.648,308.742 466.315,313.408 460.5,319C 410.167,319.667 359.833,319.667 309.5,319C 305.054,313.397 305.721,308.564 311.5,304.5 Z"/></g>
<g><path style="opacity:1" fill="#4b545a" d="M 147.5,368.5 C 251.501,368.333 355.501,368.5 459.5,369C 464.949,372.243 465.782,376.41 462,381.5C 460.933,382.191 459.766,382.691 458.5,383C 354.833,383.667 251.167,383.667 147.5,383C 142.235,378.076 142.235,373.242 147.5,368.5 Z"/></g>
<g><path style="opacity:1" fill="#4e565c" d="M 148.5,431.5 C 251.834,431.333 355.167,431.5 458.5,432C 465.648,435.742 466.315,440.408 460.5,446C 355.833,446.667 251.167,446.667 146.5,446C 142.054,440.397 142.721,435.564 148.5,431.5 Z"/></g>
</svg>
